<?xml version="1.0" encoding="UTF-8" standalone="no"?>
<svg
   version="1.1"
   id="Layer_1"
   x="0px"
   y="0px"
   width="256"
   viewBox="0 0 256 256"
   enable-background="new 0 0 672 1024"
   xml:space="preserve"
   height="256"
   xmlns="http://www.w3.org/2000/svg"
   xmlns:svg="http://www.w3.org/2000/svg"><defs
   id="defs7" />






<g
   id="g7"
   transform="matrix(0.76775275,0,0,0.76775275,-132.60939,-243.75904)"><path
     fill="#000000"
     opacity="1"
     stroke="none"
     d="m 378.97862,452.84776 c 19.30315,-13.30956 40.89882,-21.82053 60.31305,-35.52522 -3.69202,-1.35052 -6.78687,-2.42769 -9.83481,-3.62435 -1.22841,-0.48223 -2.52605,-1.12116 -2.5088,-2.75742 0.0182,-1.72965 1.18859,-2.68916 2.59974,-3.35162 0.74122,-0.34799 1.55937,-0.6308 2.36777,-0.72213 12.57175,-1.42126 25.14666,-2.81525 37.72486,-4.17797 0.77083,-0.0835 1.57556,0.14617 2.41106,0.23509 0.41304,2.54147 -1.33249,3.87461 -2.41706,5.39525 -6.47607,9.07987 -13.03241,18.10281 -19.60479,27.11347 -0.77314,1.05998 -1.71523,2.04811 -2.74681,2.85499 -1.25475,0.98143 -2.78098,1.20335 -4.23016,0.40031 -1.50137,-0.83201 -1.08617,-2.26691 -0.85461,-3.5675 0.57857,-3.24996 1.19256,-6.49363 1.86387,-10.12715 -2.53781,0.22163 -4.08073,1.55257 -5.72988,2.50379 -53.8228,31.04448 -107.61842,62.13616 -161.46998,93.13058 -2.97271,1.71093 -4.90808,3.76288 -5.58286,7.13074 -0.45694,2.28055 -1.62573,4.47552 -1.7659,6.75248 -0.55581,9.03218 -6.82594,12.57447 -14.03891,15.27968 -1.90423,-0.548 -0.37268,-2.38707 -1.30841,-3.31863 -2.80576,6.97519 -7.48834,11.30286 -15.36797,11.18094 -1.19143,-0.0185 -1.16232,0.95604 -1.56778,1.59844 -2.85125,4.51745 -7.66488,5.78979 -12.14698,8.06187 -2.23951,-12.38734 2.5847,-21.36643 13.64349,-27.10558 8.12439,-4.21631 16.05331,-8.8119 24.02778,-13.31212 1.49001,-0.84083 3.92847,-1.68233 2.54289,-3.99256 -1.36064,-2.26864 -3.28769,-0.55485 -4.77493,0.29433 -10.27077,5.86429 -20.58324,11.66346 -30.70082,17.78362 -3.3774,2.04301 -6.33654,2.32825 -9.80527,0.63143 -4.11603,-2.01347 -8.79998,-2.76032 -13.57863,-5.77498 5.49422,-3.50354 9.65043,-8.01587 16.44522,-6.23423 -0.39776,-5.81794 7.02176,-9.20041 17.89335,-8.27575 -0.55441,-1.51299 -2.96372,-0.87724 -3.1368,-3.45616 5.00817,-3.25157 9.66872,-8.12154 17.04344,-5.22483 9.8443,3.86674 18.28796,1.96104 27.51401,-3.60267 31.80472,-19.17951 64.19888,-37.38155 96.78163,-56.19614 z"
     id="path1" /><path
     fill="#000000"
     opacity="1"
     stroke="none"
     d="m 406.33652,617.01421 c -43.80021,-22.68614 -87.25803,-45.25295 -130.7889,-67.67824 -3.97424,-2.04737 -5.07906,-3.93911 -1.1372,-7.7413 44.89974,23.215 89.95079,46.50824 135.72148,70.17357 0.59372,-6.16097 1.02115,-11.55456 1.64786,-16.92493 2.21941,-19.01982 4.96487,-37.99618 3.93043,-57.24296 -0.88356,-16.4401 -4.05469,-32.35917 -10.86939,-47.41257 -1.32318,-2.92287 -0.98658,-4.96857 1.98632,-5.93094 5.9447,-1.92424 10.80857,-5.83833 16.35562,-8.46322 4.60676,-2.18004 6.1817,-1.4076 7.35473,3.61578 5.02667,21.52571 4.90743,43.24399 2.51855,65.07313 -1.90713,17.4268 -5.4014,34.54843 -9.54964,51.54737 -1.98647,8.14057 -2.50835,15.68673 2.38534,23.4405 4.60428,7.29516 3.43451,15.69971 1.06061,23.75554 -0.7615,2.58435 -2.35394,4.00738 -5.15827,3.56098 -2.95412,-0.47021 -4.41111,-2.20504 -3.98495,-5.24333 1.28969,-9.19447 -5.29411,-15.44359 -8.61433,-22.90233 -0.32176,-0.72283 -1.66613,-0.99043 -2.85826,-1.62705 z"
     id="path2" /><path
     fill="#000000"
     opacity="1"
     stroke="none"
     d="m 258.11491,455.68529 c -0.6561,16.94978 -1.28861,33.53705 -1.91443,49.9488 -2.57661,0.66711 -4.30149,0.30353 -6.34834,-0.90263 0.34071,-9.9421 0.68802,-20.07038 1.03482,-30.19871 1.31678,-38.4567 2.52432,-76.91766 4.01478,-115.36766 0.46319,-11.94872 -5.93928,-19.8063 -14.51202,-26.51142 -2.28494,-1.78715 -5.24172,-2.74078 -3.74171,-6.42583 1.59681,-3.92278 4.77609,-3.55796 8.00889,-2.62502 8.13725,2.34828 15.21717,6.6533 19.34855,14.03451 3.72636,6.65762 9.40719,9.50255 16.08638,11.54798 13.70087,4.19569 27.40723,8.40358 40.66814,13.87026 23.35947,9.62976 45.82493,20.80165 64.49535,38.33862 4.93552,4.63584 4.67803,6.61808 -1.28244,10.07123 -4.75737,2.75615 -9.51564,5.51214 -14.22913,8.34216 -2.35479,1.4138 -4.26869,1.44881 -6.0052,-1.00391 -19.4515,-27.47427 -48.00299,-41.97499 -77.9049,-54.51869 -6.9163,-2.90139 -13.82417,-5.8055 -20.46082,-9.31711 -0.99507,-0.52649 -1.96675,-1.33803 -3.87668,-0.51844 -1.11296,33.43637 -2.23532,67.15486 -3.38124,101.23586 z"
     id="path3" /><path
     fill="#000000"
     opacity="1"
     stroke="none"
     d="m 388.50164,422.13727 c 4.20684,-0.92558 6.5125,1.3926 6.75871,4.4781 0.24431,3.06147 1.59506,4.69071 3.61375,6.52917 2.69981,2.45872 3.1271,4.98672 -0.73235,7.0447 -3.8128,2.03312 -7.5254,4.25493 -11.27191,6.41135 -2.95234,1.69932 -4.94153,0.87107 -5.27637,-2.46395 -0.33751,-3.36181 -2.06482,-5.14206 -4.8776,-6.81923 -3.58962,-2.14038 -3.39914,-6.17055 0.17942,-8.48513 3.62489,-2.34462 7.46386,-4.35828 11.60635,-6.69501 z"
     id="path4" /><path
     fill="#000000"
     opacity="1"
     stroke="none"
     d="m 397.66762,452.84006 c 1.57051,-0.89936 2.71941,-1.57188 3.88473,-2.21469 5.70162,-3.14513 6.14268,-3.02248 7.97151,3.11548 0.51282,1.72105 1.85028,2.17327 3.06468,2.99769 3.81162,2.58759 4.14042,6.24814 0.51308,8.91206 -3.61106,2.65201 -7.49816,4.99871 -11.7383,6.53104 -3.89003,1.40582 -6.47249,-0.31231 -6.75592,-4.45801 -0.14674,-2.1468 -0.75325,-4.02238 -2.31414,-5.3159 -3.72081,-3.08342 -2.5015,-5.1888 1.07417,-7.07477 1.32329,-0.69793 2.59237,-1.4986 4.30019,-2.4929 z"
     id="path5" /><path
     fill="#000000"
     opacity="1"
     stroke="none"
     d="m 421.58028,473.74861 c -4.82644,3.06345 -9.33779,5.86401 -13.94051,8.50532 -1.93,1.10752 -4.33822,2.96573 -5.93742,-0.16489 -1.49079,-2.91843 -2.88308,-6.47545 0.51152,-8.94819 3.4671,-2.52551 7.31022,-4.61079 11.18765,-6.47501 3.68703,-1.77269 7.47613,1.41607 8.17876,7.08277 z"
     id="path6" /><path
     fill="#000000"
     opacity="1"
     stroke="none"
     d="m 369.32682,426.00517 c -1.91673,-2.94744 -0.26855,-4.22698 1.76661,-5.38679 4.02017,-2.29103 8.01003,-4.6357 12.04522,-6.89966 1.53119,-0.85912 3.10758,-2.20638 4.85097,-0.29073 1.54781,1.70065 2.37766,3.60656 1.53673,5.89124 -1.80332,4.89915 -15.15598,9.57409 -20.19953,6.68594 z"
     id="path7" /></g>
</svg>
