<?xml version="1.0" encoding="UTF-8" standalone="no"?>
<svg
   version="1.1"
   id="Layer_1"
   x="0px"
   y="0px"
   width="256"
   viewBox="0 0 256 256"
   enable-background="new 0 0 672 1024"
   xml:space="preserve"
   height="256"
   xmlns="http://www.w3.org/2000/svg"
   xmlns:svg="http://www.w3.org/2000/svg"><defs
   id="defs1" />
<path
   fill="#000000"
   opacity="1"
   stroke="none"
   d="M 61.570738,79.380374 C 54.619149,82.919422 47.824102,86.224637 39.285266,87.546324 54.024938,68.426501 69.008593,50.953009 91.479477,41.684908 82.075626,41.95456 72.848382,42.524788 63.911879,38.619526 82.331628,33.507972 98.395772,21.721082 118.95428,20.455669 c -6.59883,-3.680805 -12.09224,-7.52849 -15.38055,-13.7521168 1.29884,-0.8849817 2.01409,-0.289656 2.73673,0.00133 6.4583,2.6035391 13.22949,3.5484658 20.11907,4.2023268 6.24685,0.592865 12.53986,0.110659 18.75579,1.091377 3.27283,0.516348 6.45858,1.274656 9.33834,2.97474 2.88535,1.703355 3.00127,2.387687 0.94917,4.959331 -0.82161,1.02965 -1.67646,2.032713 -2.36061,3.250058 2.91027,-0.965635 5.43037,-2.607143 7.82178,-4.383557 8.65141,-6.426512 18.1286,-11.3021575 28.13029,-15.2075126 1.15961,-0.452812 2.49691,-1.5189318 3.68614,-0.1954227 1.02214,1.1375562 0.53764,2.5454429 0.11931,3.8139282 -2.68929,8.1553501 -7.55693,14.9917801 -13.0522,21.4434561 6.39048,-2.189073 6.42078,-2.168497 10.06695,-7.535712 1.18848,-1.749467 2.63708,-3.06622 4.51632,-4.062033 2.99441,-1.586764 5.88484,-3.369616 8.82127,-5.066001 0.86234,-0.498193 1.66395,-1.462445 2.76896,-0.875313 1.2299,0.653489 0.91815,1.965732 0.91247,3.05574 -0.0194,3.729537 -1.93112,6.661117 -4.22316,9.349858 -3.33771,3.915464 -7.08667,7.407695 -11.62008,10.514854 4.03707,5.610399 7.75038,11.389461 12.53013,16.324492 3.3126,3.420201 4.88364,7.346292 4.43116,12.002653 -0.37403,3.849068 1.34585,7.060143 2.94335,10.22452 6.24668,12.373504 11.39489,25.323686 19.22923,36.871385 1.68502,2.48369 1.53886,5.15785 0.015,7.57371 -2.9598,4.69235 -5.98929,9.35347 -9.24679,13.84103 -2.36233,3.25435 -7.00411,4.43802 -10.84883,3.11188 -1.40782,-0.48557 -2.68861,-0.61255 -4.18374,-0.31187 -7.06427,1.42071 -13.27132,-3.48391 -13.59463,-10.71697 -0.10481,-2.34559 -0.97726,-4.08827 -2.87859,-5.47391 -5.64868,-4.11664 -11.24034,-8.31155 -16.86323,-12.46373 -1.00067,-0.73894 -2.06569,-1.26342 -3.38564,-1.30289 -15.15165,-0.45333 -22.53479,-12.388405 -24.36577,-23.21111 -0.60284,-3.563362 -0.53699,-7.16177 -0.79124,-10.782151 -2.17178,4.481182 -2.25947,9.303161 -1.78943,14.087406 0.83528,8.501732 4.69114,15.439378 11.59014,20.585965 1.01855,0.75981 1.92838,1.47184 1.85565,2.94768 -0.56131,11.39096 3.72223,21.50555 8.30118,31.55816 5.33181,11.70547 11.75679,22.84267 17.65384,34.25409 6.25527,12.10461 10.90425,24.60035 9.83177,38.6023 -0.72891,9.51663 -3.86267,18.22743 -8.31451,26.54979 -0.23926,0.4473 -0.54258,0.88048 -1.61252,0.95835 -1.37068,-25.51912 -10.83422,-48.4866 -22.87355,-70.60116 5.7617,13.58047 10.84827,27.38564 14.30571,41.76348 3.43563,14.28724 5.23442,28.67619 3.91309,43.39261 -1.41656,-0.0607 -1.76783,-0.73954 -2.16641,-1.31786 -10.62093,-15.41078 -24.55646,-27.34899 -39.98883,-37.58674 -22.6052,-14.99617 -47.123063,-25.9558 -73.091103,-33.72391 -0.849016,-0.25394 -1.86355,-0.27944 -2.458996,-1.22345 -0.12094,-1.2346 0.989829,-1.67346 1.681717,-2.33745 9.039252,-8.67488 13.136363,-19.61384 14.863141,-31.74299 1.5939,-11.19581 1.281766,-22.53549 2.873124,-33.7325 4.21984,-29.691155 18.165568,-53.802244 41.371027,-72.645929 3.42375,-2.780195 7.00527,-5.366057 10.44083,-8.17961 -5.71545,2.021182 -10.83553,5.172737 -15.70245,8.72897 -21.021283,15.360178 -33.897387,36.020972 -39.436651,61.315459 -2.221585,10.14462 -3.198665,20.45837 -3.59482,30.85203 -0.372004,9.76056 -1.202287,19.53803 -5.638088,28.49109 -4.760911,9.60923 -12.488724,14.72961 -23.39682,14.60363 -0.873481,-0.0106 -1.869004,0.25266 -2.520846,-0.59154 -0.284292,-0.96718 0.418344,-1.37797 0.944124,-1.81334 6.187657,-5.12322 8.533142,-12.22414 9.794244,-19.72007 0.968843,-5.75883 1.346395,-11.6161 2.022276,-17.42551 0.666558,-5.72925 2.736839,-11.08496 4.959862,-17.26712 -7.955536,7.8416 -13.757297,16.51534 -21.892223,23.21786 1.053168,-12.45877 4.639059,-24.15036 9.996902,-35.34137 5.387991,-11.253981 13.029005,-20.885915 21.538428,-30.067457 -0.919234,0.446521 -1.847365,0.875818 -2.75532,1.344231 -1.004304,0.518117 -1.990109,1.072026 -3.184456,1.72292 M 192.21368,64.777018 c -2.05112,-3.735216 -5.17552,-5.493568 -9.46906,-5.349645 0.40408,4.957443 5.82184,8.011347 9.46906,5.349645 z"
   id="path1"
   style="stroke-width:0.617035" />
</svg>
