<?xml version="1.0" encoding="UTF-8" standalone="no"?>
<svg
   version="1.1"
   id="Layer_1"
   x="0px"
   y="0px"
   width="256"
   viewBox="0 0 256 256"
   enable-background="new 0 0 672 1024"
   xml:space="preserve"
   height="256"
   xmlns="http://www.w3.org/2000/svg"
   xmlns:svg="http://www.w3.org/2000/svg"><defs
   id="defs4" />



<g
   id="g4"
   transform="matrix(-0.5495375,-0.46111672,0.46111672,-0.5495375,88.821344,558.27232)"><path
     fill="#000000"
     opacity="1"
     stroke="none"
     d="m 367.95819,529.01477 c 0.14713,24.32593 -0.013,48.1615 0.54868,71.98016 0.3338,14.15418 0.41113,28.31348 0.84918,42.45874 0.38803,12.52979 -1.71951,24.41657 -5.89362,36.19434 -5.18618,14.63355 -11.48361,28.75531 -18.13101,42.74689 -0.70514,1.48425 -1.41601,3.01715 -2.84299,3.95221 -2.47363,-0.22699 -2.73013,-2.38733 -3.49313,-3.896 -8.66043,-17.12457 -16.12863,-34.73712 -21.50439,-53.19385 -1.73236,-5.94775 -2.71311,-11.98163 -2.6464,-18.20227 0.43408,-40.47912 0.45752,-80.96692 1.35175,-121.43561 0.64798,-29.32473 0.056,-58.65362 0.92654,-87.96469 0.36609,-12.32782 0.60935,-24.65121 0.43735,-36.97445 -0.0595,-4.25855 1.36954,-6.05924 5.629,-6.20642 3.47668,-0.12012 6.92712,-0.89453 10.39843,-1.29996 5.44117,-0.63553 6.49048,0.22381 6.51819,5.83673 0.10022,20.33026 0.11914,40.66089 0.16242,60.99139 0.0341,15.99787 -0.0386,31.99659 0.10818,47.99338 0.28888,31.48602 0.7273,62.97077 1.03937,94.45667 0.10559,10.65191 0.0167,21.30572 0.0167,31.95874 0.42005,0.006 0.84012,0.0115 1.26017,0.0173 0,-1.60205 -0.003,-3.2041 4.5e-4,-4.80615 0.0545,-26.32965 -0.38574,-52.67176 0.27146,-78.98633 1.23993,-49.64957 0.47693,-99.3006 0.87109,-148.94888 0.0119,-1.49952 0.1052,-2.99952 0.0802,-4.49796 -0.0543,-3.25845 1.58298,-4.52038 4.71167,-4.13125 3.96289,0.49285 7.92496,1.33322 11.89261,1.36474 5.45761,0.0435 6.48727,2.83902 6.48862,7.63333 0.009,33.49488 0.2016,66.98981 0.40179,100.48435 0.0438,7.32663 0.35565,14.65164 0.54767,22.47482 z"
     id="path1" /><path
     fill="#000000"
     opacity="1"
     stroke="none"
     d="m 298.7713,378.58023 c 32.1911,-7.23611 63.78464,-7.04877 95.11044,2.4924 7.48197,2.27884 8.82401,5.0632 6.44712,12.70053 -1.29648,4.16574 -3.11808,8.09281 -5.70267,11.60224 -2.07935,2.82327 -5.38214,4.26532 -7.45688,1.01583 -5.95849,-9.33227 -15.55194,-10.92193 -25.02243,-12.50943 -16.08398,-2.69604 -32.20105,-2.16073 -48.09576,1.56647 -6.50522,1.52542 -12.65815,3.81699 -16.49503,10.19998 -2.13788,3.55655 -5.75195,3.30649 -8.16898,-0.073 -3.12606,-4.37094 -5.44119,-9.19199 -6.51156,-14.48111 -1.1084,-5.47687 0.19324,-7.65775 5.44861,-9.43741 3.30636,-1.11963 6.69241,-2.00376 10.44714,-3.07648 z"
     id="path2" /><path
     fill="#000000"
     opacity="1"
     stroke="none"
     d="m 353.66867,302.68954 c 2.81094,0.19596 3.88113,1.65555 3.31006,3.74518 -1.75696,6.42896 -1.2652,12.94934 -0.62827,19.37046 1.27497,12.85464 0.63196,25.88983 3.7515,38.57937 1.21249,4.9321 0.18161,5.68918 -4.99039,5.27042 -8.47909,-0.68656 -16.98129,-0.73209 -25.45849,0.0261 -5.88437,0.52634 -6.96753,-0.52533 -5.25419,-6.3089 1.10962,-3.74545 1.327,-7.51651 1.39679,-11.35229 0.0535,-2.93894 0.23987,-5.85379 4.56629,-6.37555 -3.65256,-0.14804 -4.00403,-2.45093 -3.50491,-4.64261 1.54934,-6.80365 -0.17591,-13.86841 2.76437,-20.82306 1.0459,-2.47385 -0.80655,-8.14383 -2.11032,-12.17148 -1.30209,-4.02237 0.0812,-5.49948 4.19858,-5.40463 7.16201,0.16501 14.33026,0.0584 21.95898,0.087 z"
     id="path3" /><path
     fill="#000000"
     opacity="1"
     stroke="none"
     d="m 356.30695,276.66956 c 2.79769,2.79339 4.35592,5.8692 5.32293,9.29049 2.13193,7.54303 -3.64685,15.55893 -11.39322,15.39984 -5.81274,-0.11935 -11.58392,0.91837 -17.42749,0.14118 -6.60696,-0.8787 -12.15585,-8.64029 -10.49444,-15.16513 3.8666,-15.18528 20.48337,-20.07337 33.99222,-9.66638 z"
     id="path4" /></g>
</svg>
